<svg class="jw-svg-icon jw-svg-icon-forward" xmlns="http://www.w3.org/2000/svg" viewBox="0 0 240 240" focusable="false"><path d="M212.7,59.9c-0.6-1.2-1.5-2.1-2.7-2.7l-41.2-27.5c-4.3-2.9-7.9-1-7.9,4.2v19H30.9c-2.7,0-4.9,2.2-4.9,4.9v125.3c0,2.6,2.2,4.8,4.8,4.8H93v-20H45V72h116v19c0,5.2,3.5,7.1,7.9,4.2L210,67.8C212.9,66.3,214.1,62.8,212.7,59.9z"/><path d="M175.7,120.3c-7.3,0.3-14,4.3-17.7,10.6c-8.6,14.2-8.6,32.1,0,46.3c3.7,6.3,10.4,10.3,17.7,10.6c7.3-0.3,14-4.3,17.7-10.6c8.5-14.3,8.5-32.1,0-46.3C189.7,124.6,183,120.6,175.7,120.3z M175.7,178.1c-7.8,0-14.4-11-14.4-24.1c0-13.1,6.6-24.1,14.4-24.1s14.4,11,14.4,24.1C190.1,167.1,183.6,178.1,175.7,178.1z"/><path d="M138.6,120.7c-1.8-0.7-3.8-0.2-5.1,1.1l-13.6,13l7.1,6.8l5-4.8v51l10,0.1v-62.7C142,123.3,140.7,121.5,138.6,120.7z"/></svg>